<svg version="1.1" xmlns="http://www.w3.org/2000/svg" viewBox="0 0 1347.9166666666667 594" width="1347.9166666666667" height="594" filter="invert(93%) hue-rotate(180deg)">
  <!-- svg-source:excalidraw -->
  
  <defs>
    <style class="style-fonts">
      @font-face {
        font-family: "Virgil";
        src: url("https://excalidraw.com/Virgil.woff2");
      }
      @font-face {
        font-family: "Cascadia";
        src: url("https://excalidraw.com/Cascadia.woff2");
      }
    </style>
    
  </defs>
  <rect x="0" y="0" width="1347.9166666666667" height="594" fill="#ffffff"></rect><g stroke-linecap="round" transform="translate(381.91666666666674 10) rotate(0 478 287)"><path d="M32 0 M32 0 C274.65 1.96, 518.35 2.69, 924 0 M32 0 C385.2 -2.66, 738.16 -2.54, 924 0 M924 0 C943.54 0.26, 954.91 12.52, 956 32 M924 0 C946.24 -0.14, 956.42 8.73, 956 32 M956 32 C954.61 214.78, 953.59 397.59, 956 542 M956 32 C956.64 147.26, 956.32 261.46, 956 542 M956 542 C956 562.04, 947.14 574.41, 924 574 M956 542 C955.57 564.71, 944.17 574.05, 924 574 M924 574 C637.7 572.53, 351.42 572.87, 32 574 M924 574 C724.65 572.67, 525.63 572.75, 32 574 M32 574 C9.96 573.4, 0.47 562.75, 0 542 M32 574 C10.11 571.92, -1.21 565.26, 0 542 M0 542 C-1 382.22, -1.21 221, 0 32 M0 542 C-0.65 358.74, -0.45 175.02, 0 32 M0 32 C-1.84 12.41, 8.67 1.3, 32 0 M0 32 C0.63 10.98, 12.2 -0.45, 32 0" stroke="#1e1e1e" stroke-width="1" fill="none"></path></g><g transform="translate(839.8166834513347 22) rotate(0 20.09998321533203 275)"><text x="20.09998321533203" y="0" font-family="Virgil, Segoe UI Emoji" font-size="20px" fill="#1e1e1e" text-anchor="middle" style="white-space: pre;" direction="ltr" dominant-baseline="text-before-edge">AWS</text><text x="20.09998321533203" y="25" font-family="Virgil, Segoe UI Emoji" font-size="20px" fill="#1e1e1e" text-anchor="middle" style="white-space: pre;" direction="ltr" dominant-baseline="text-before-edge"></text><text x="20.09998321533203" y="50" font-family="Virgil, Segoe UI Emoji" font-size="20px" fill="#1e1e1e" text-anchor="middle" style="white-space: pre;" direction="ltr" dominant-baseline="text-before-edge"></text><text x="20.09998321533203" y="75" font-family="Virgil, Segoe UI Emoji" font-size="20px" fill="#1e1e1e" text-anchor="middle" style="white-space: pre;" direction="ltr" dominant-baseline="text-before-edge"></text><text x="20.09998321533203" y="100" font-family="Virgil, Segoe UI Emoji" font-size="20px" fill="#1e1e1e" text-anchor="middle" style="white-space: pre;" direction="ltr" dominant-baseline="text-before-edge"></text><text x="20.09998321533203" y="125" font-family="Virgil, Segoe UI Emoji" font-size="20px" fill="#1e1e1e" text-anchor="middle" style="white-space: pre;" direction="ltr" dominant-baseline="text-before-edge"></text><text x="20.09998321533203" y="150" font-family="Virgil, Segoe UI Emoji" font-size="20px" fill="#1e1e1e" text-anchor="middle" style="white-space: pre;" direction="ltr" dominant-baseline="text-before-edge"></text><text x="20.09998321533203" y="175" font-family="Virgil, Segoe UI Emoji" font-size="20px" fill="#1e1e1e" text-anchor="middle" style="white-space: pre;" direction="ltr" dominant-baseline="text-before-edge"></text><text x="20.09998321533203" y="200" font-family="Virgil, Segoe UI Emoji" font-size="20px" fill="#1e1e1e" text-anchor="middle" style="white-space: pre;" direction="ltr" dominant-baseline="text-before-edge"></text><text x="20.09998321533203" y="225" font-family="Virgil, Segoe UI Emoji" font-size="20px" fill="#1e1e1e" text-anchor="middle" style="white-space: pre;" direction="ltr" dominant-baseline="text-before-edge"></text><text x="20.09998321533203" y="250" font-family="Virgil, Segoe UI Emoji" font-size="20px" fill="#1e1e1e" text-anchor="middle" style="white-space: pre;" direction="ltr" dominant-baseline="text-before-edge"></text><text x="20.09998321533203" y="275" font-family="Virgil, Segoe UI Emoji" font-size="20px" fill="#1e1e1e" text-anchor="middle" style="white-space: pre;" direction="ltr" dominant-baseline="text-before-edge"></text><text x="20.09998321533203" y="300" font-family="Virgil, Segoe UI Emoji" font-size="20px" fill="#1e1e1e" text-anchor="middle" style="white-space: pre;" direction="ltr" dominant-baseline="text-before-edge"></text><text x="20.09998321533203" y="325" font-family="Virgil, Segoe UI Emoji" font-size="20px" fill="#1e1e1e" text-anchor="middle" style="white-space: pre;" direction="ltr" dominant-baseline="text-before-edge"></text><text x="20.09998321533203" y="350" font-family="Virgil, Segoe UI Emoji" font-size="20px" fill="#1e1e1e" text-anchor="middle" style="white-space: pre;" direction="ltr" dominant-baseline="text-before-edge"></text><text x="20.09998321533203" y="375" font-family="Virgil, Segoe UI Emoji" font-size="20px" fill="#1e1e1e" text-anchor="middle" style="white-space: pre;" direction="ltr" dominant-baseline="text-before-edge"></text><text x="20.09998321533203" y="400" font-family="Virgil, Segoe UI Emoji" font-size="20px" fill="#1e1e1e" text-anchor="middle" style="white-space: pre;" direction="ltr" dominant-baseline="text-before-edge"></text><text x="20.09998321533203" y="425" font-family="Virgil, Segoe UI Emoji" font-size="20px" fill="#1e1e1e" text-anchor="middle" style="white-space: pre;" direction="ltr" dominant-baseline="text-before-edge"></text><text x="20.09998321533203" y="450" font-family="Virgil, Segoe UI Emoji" font-size="20px" fill="#1e1e1e" text-anchor="middle" style="white-space: pre;" direction="ltr" dominant-baseline="text-before-edge"></text><text x="20.09998321533203" y="475" font-family="Virgil, Segoe UI Emoji" font-size="20px" fill="#1e1e1e" text-anchor="middle" style="white-space: pre;" direction="ltr" dominant-baseline="text-before-edge"></text><text x="20.09998321533203" y="500" font-family="Virgil, Segoe UI Emoji" font-size="20px" fill="#1e1e1e" text-anchor="middle" style="white-space: pre;" direction="ltr" dominant-baseline="text-before-edge"></text><text x="20.09998321533203" y="525" font-family="Virgil, Segoe UI Emoji" font-size="20px" fill="#1e1e1e" text-anchor="middle" style="white-space: pre;" direction="ltr" dominant-baseline="text-before-edge"></text></g><g stroke-linecap="round" transform="translate(414.91666666666674 124) rotate(0 74.5 72)"><path d="M32 0 M32 0 C55.13 -1.87, 75.32 1.08, 117 0 M32 0 C54.79 -0.22, 78.57 -0.01, 117 0 M117 0 C139.44 0.85, 147.31 9.16, 149 32 M117 0 C138.99 -1.49, 149.46 12.34, 149 32 M149 32 C148.29 61.02, 148.44 89.82, 149 112 M149 32 C149.05 56.17, 149.92 80.47, 149 112 M149 112 C150.57 134.15, 136.84 145.94, 117 144 M149 112 C148.22 133.67, 140.13 142.65, 117 144 M117 144 C85.37 144.89, 51.31 144.13, 32 144 M117 144 C86.57 143.23, 55.37 144.72, 32 144 M32 144 C11.07 144.15, -0.66 132.31, 0 112 M32 144 C10.67 142.48, 1.08 134.74, 0 112 M0 112 C-0.91 88.96, -0.01 65.59, 0 32 M0 112 C-0.14 95.31, 0.69 77.16, 0 32 M0 32 C-0.31 8.93, 10.58 0, 32 0 M0 32 C-1.48 9.84, 10.23 1.21, 32 0" stroke="#1e1e1e" stroke-width="1" fill="none"></path></g><g transform="translate(437.56672159830737 183.5) rotate(0 51.849945068359375 12.5)"><text x="51.849945068359375" y="0" font-family="Virgil, Segoe UI Emoji" font-size="20px" fill="#1e1e1e" text-anchor="middle" style="white-space: pre;" direction="ltr" dominant-baseline="text-before-edge">S3 Bucket</text></g><g stroke-linecap="round" transform="translate(626.4166666666667 122) rotate(0 74.5 72)"><path d="M32 0 M32 0 C55.39 -0.25, 78.13 1.56, 117 0 M32 0 C54.16 0.49, 78.32 0.55, 117 0 M117 0 C140.1 -0.48, 149.61 11.37, 149 32 M117 0 C138.06 1.97, 148.08 8.46, 149 32 M149 32 C147.16 57.48, 148.79 77.31, 149 112 M149 32 C148.62 58.35, 148.89 86.79, 149 112 M149 112 C148.13 133.02, 139.04 144.18, 117 144 M149 112 C150.43 133.74, 138.02 144.84, 117 144 M117 144 C90.22 143.23, 66.39 143.15, 32 144 M117 144 C91.84 142.73, 66.48 143.06, 32 144 M32 144 C10.28 144.75, -1.87 135.18, 0 112 M32 144 C9.84 145.68, 1.18 134.62, 0 112 M0 112 C1.16 95.19, 0.14 77.68, 0 32 M0 112 C-0.52 88.53, 0 64.6, 0 32 M0 32 C-1.38 12.46, 9.98 1.78, 32 0 M0 32 C-0.83 8.5, 10.09 1.54, 32 0" stroke="#1e1e1e" stroke-width="1" fill="none"></path></g><g transform="translate(663.8167063395183 169) rotate(0 37.09996032714844 25)"><text x="37.09996032714844" y="0" font-family="Virgil, Segoe UI Emoji" font-size="20px" fill="#1e1e1e" text-anchor="middle" style="white-space: pre;" direction="ltr" dominant-baseline="text-before-edge">Python </text><text x="37.09996032714844" y="25" font-family="Virgil, Segoe UI Emoji" font-size="20px" fill="#1e1e1e" text-anchor="middle" style="white-space: pre;" direction="ltr" dominant-baseline="text-before-edge">Lambda</text></g><g stroke-linecap="round" transform="translate(841.4166666666667 253) rotate(0 74.5 72)"><path d="M32 0 M32 0 C54.56 0.69, 74.91 0.28, 117 0 M32 0 C56.88 -0.88, 83.04 -0.84, 117 0 M117 0 C136.44 0.94, 150.76 9.78, 149 32 M117 0 C138.37 -0.83, 148.35 9.99, 149 32 M149 32 C148.87 60.87, 146.73 92.21, 149 112 M149 32 C148.84 48.06, 149.97 63.72, 149 112 M149 112 C150.47 135, 138.37 143.13, 117 144 M149 112 C146.77 132.46, 137.26 142.83, 117 144 M117 144 C82.98 143.93, 53.17 144.19, 32 144 M117 144 C88.78 144.91, 61.19 143.03, 32 144 M32 144 C10.93 145.7, -1.98 132, 0 112 M32 144 C9.61 143.94, -0.04 135.07, 0 112 M0 112 C-1.77 87.05, -1.54 63.72, 0 32 M0 112 C1.34 84.67, 0.62 56.13, 0 32 M0 32 C-1.42 9.1, 11.48 -1.86, 32 0 M0 32 C1.37 11.59, 12.09 1.62, 32 0" stroke="#1e1e1e" stroke-width="1" fill="none"></path></g><g transform="translate(884.4466883341472 300) rotate(0 31.46997833251953 25)"><text x="31.46997833251953" y="0" font-family="Virgil, Segoe UI Emoji" font-size="20px" fill="#1e1e1e" text-anchor="middle" style="white-space: pre;" direction="ltr" dominant-baseline="text-before-edge">MySQL</text><text x="31.46997833251953" y="25" font-family="Virgil, Segoe UI Emoji" font-size="20px" fill="#1e1e1e" text-anchor="middle" style="white-space: pre;" direction="ltr" dominant-baseline="text-before-edge">RDS</text></g><g stroke-linecap="round" transform="translate(415.41666666666674 392) rotate(0 74.5 72)"><path d="M32 0 M32 0 C56.2 -1.4, 80.23 0.36, 117 0 M32 0 C58.28 1.09, 86.99 0.08, 117 0 M117 0 C139.34 -0.8, 148.92 9.66, 149 32 M117 0 C139.23 -1.16, 148.47 9.2, 149 32 M149 32 C147.8 62.69, 149.92 89.49, 149 112 M149 32 C148.76 50.07, 148.38 68.88, 149 112 M149 112 C149.56 134.06, 138.42 143.97, 117 144 M149 112 C149.23 132.48, 138.2 142.98, 117 144 M117 144 C97.05 144.48, 74.18 144.11, 32 144 M117 144 C92.19 142.94, 66.74 144.33, 32 144 M32 144 C10.53 144.54, -1.79 133.83, 0 112 M32 144 C11.59 143.26, 1.86 131.75, 0 112 M0 112 C0.02 89.58, -0.26 68.46, 0 32 M0 112 C-0.07 89.22, -0.33 67.56, 0 32 M0 32 C-1.69 12.38, 11.37 0.68, 32 0 M0 32 C-0.01 11.1, 12.01 -0.75, 32 0" stroke="#1e1e1e" stroke-width="1" fill="none"></path></g><g transform="translate(423.1667353312175 451.5) rotate(0 66.74993133544922 12.5)"><text x="66.74993133544922" y="0" font-family="Virgil, Segoe UI Emoji" font-size="20px" fill="#1e1e1e" text-anchor="middle" style="white-space: pre;" direction="ltr" dominant-baseline="text-before-edge">API Gateway</text></g><g stroke-linecap="round" transform="translate(626.4166666666667 392) rotate(0 74.5 72)"><path d="M32 0 M32 0 C49.06 0.23, 67.07 -0.44, 117 0 M32 0 C52.57 -1.06, 73.53 0.53, 117 0 M117 0 C139.62 -0.07, 150.79 11.44, 149 32 M117 0 C138.46 -0.11, 148.76 8.69, 149 32 M149 32 C151.41 52.75, 151.36 74.62, 149 112 M149 32 C148.14 51.23, 148.18 70.07, 149 112 M149 112 C148.89 133.92, 140.04 144.82, 117 144 M149 112 C150.37 134.47, 137.04 145.22, 117 144 M117 144 C100.56 144.3, 79.91 144.11, 32 144 M117 144 C96.03 144.32, 75.56 143.59, 32 144 M32 144 C12.06 144.58, 1.8 132.75, 0 112 M32 144 C9.21 144.97, 1.96 133.15, 0 112 M0 112 C-0.75 90.2, -1.26 71.66, 0 32 M0 112 C-0.41 80.15, -0.33 49.4, 0 32 M0 32 C0.88 8.99, 8.84 1.98, 32 0 M0 32 C2.1 10.54, 8.78 -2.28, 32 0" stroke="#1e1e1e" stroke-width="1" fill="none"></path></g><g transform="translate(663.8167063395183 439) rotate(0 37.09996032714844 25)"><text x="37.09996032714844" y="0" font-family="Virgil, Segoe UI Emoji" font-size="20px" fill="#1e1e1e" text-anchor="middle" style="white-space: pre;" direction="ltr" dominant-baseline="text-before-edge">Python </text><text x="37.09996032714844" y="25" font-family="Virgil, Segoe UI Emoji" font-size="20px" fill="#1e1e1e" text-anchor="middle" style="white-space: pre;" direction="ltr" dominant-baseline="text-before-edge">Lambda</text></g><g stroke-linecap="round" transform="translate(1057.4166666666667 399) rotate(0 74.5 72)"><path d="M32 0 M32 0 C55.04 -0.73, 78.97 -1.75, 117 0 M32 0 C61.31 0.18, 89.68 -0.03, 117 0 M117 0 C139.89 -0.56, 150.02 9.2, 149 32 M117 0 C137.61 -0.17, 146.86 8.78, 149 32 M149 32 C148.02 64.77, 149.9 96, 149 112 M149 32 C149.45 49.85, 149.75 69.38, 149 112 M149 112 C150.23 132.77, 138.03 143.23, 117 144 M149 112 C147.73 134.37, 139.9 142.18, 117 144 M117 144 C90.71 143.17, 61.43 144.01, 32 144 M117 144 C86.21 143.64, 55.29 143.42, 32 144 M32 144 C11.03 143.2, 1.11 134.24, 0 112 M32 144 C10.03 145.33, -1.28 134.37, 0 112 M0 112 C0.52 80.31, 2.58 47.64, 0 32 M0 112 C-0.05 83.51, 0.99 54.14, 0 32 M0 32 C0.05 9.81, 10.04 -1.01, 32 0 M0 32 C0.13 9.55, 9.29 -0.89, 32 0" stroke="#1e1e1e" stroke-width="1" fill="none"></path></g><g transform="translate(1077.5667215983074 458.5) rotate(0 54.349945068359375 12.5)"><text x="54.349945068359375" y="0" font-family="Virgil, Segoe UI Emoji" font-size="20px" fill="#1e1e1e" text-anchor="middle" style="white-space: pre;" direction="ltr" dominant-baseline="text-before-edge">Cloudwatch</text></g><g stroke-linecap="round"><g transform="translate(785.9166666666667 194) rotate(0 174.5660745586129 97.57372857115234)"><path d="M0.3 -0.23 C49.54 4.52, 236.04 -3.66, 294.34 28.9 C352.65 61.46, 340.93 167.58, 350.14 195.15 M-1 -1.4 C48.73 3.43, 238.22 -3.13, 296.71 29.86 C355.21 62.85, 341.06 169.02, 349.97 196.55" stroke="#1e1e1e" stroke-width="1" fill="none"></path></g><g transform="translate(785.9166666666667 194) rotate(0 174.5660745586129 97.57372857115234)"><path d="M336.45 168.48 C337.8 177.01, 342.6 181.68, 348.81 195.27 M336.45 168.73 C339.83 177.93, 344.51 185.2, 350.76 197.12" stroke="#1e1e1e" stroke-width="1" fill="none"></path></g><g transform="translate(785.9166666666667 194) rotate(0 174.5660745586129 97.57372857115234)"><path d="M356.86 166.35 C354 175.37, 354.58 180.48, 348.81 195.27 M356.86 166.6 C354.23 176.27, 352.88 184.17, 350.76 197.12" stroke="#1e1e1e" stroke-width="1" fill="none"></path></g></g><mask></mask><g stroke-linecap="round"><g transform="translate(776.9166666666667 461) rotate(0 136.4074625944765 4.0714153040107135)"><path d="M-0.27 0.9 C44.91 2.18, 225.68 5.58, 270.93 6.87 M1.79 0.33 C47.35 1.78, 227.76 6.76, 273.08 7.81" stroke="#1e1e1e" stroke-width="1" fill="none"></path></g><g transform="translate(776.9166666666667 461) rotate(0 136.4074625944765 4.0714153040107135)"><path d="M246.15 15.56 C250.95 13.38, 262.02 12.93, 274.92 9.8 M245.22 17.18 C250.91 14.82, 258.89 12.46, 273.21 8.49" stroke="#1e1e1e" stroke-width="1" fill="none"></path></g><g transform="translate(776.9166666666667 461) rotate(0 136.4074625944765 4.0714153040107135)"><path d="M246.67 -4.95 C251.2 -1.26, 262.12 4.15, 274.92 9.8 M245.75 -3.34 C251.27 -0.55, 259.13 2.23, 273.21 8.49" stroke="#1e1e1e" stroke-width="1" fill="none"></path></g></g><mask></mask><g stroke-linecap="round" transform="translate(975.4722222222222 40.666666666666686) rotate(0 97.77777777777783 52.22222222222223)"><path d="M26.11 0 M26.11 0 C56.48 -1.9, 84.9 -1.14, 169.44 0 M26.11 0 C69.13 -0.6, 113.12 0.21, 169.44 0 M169.44 0 C185.46 -1.81, 195.19 9.73, 195.56 26.11 M169.44 0 C186.51 0.48, 194.8 9.11, 195.56 26.11 M195.56 26.11 C194.71 34.85, 194.05 48.8, 195.56 78.33 M195.56 26.11 C195.54 40.88, 195.32 55.35, 195.56 78.33 M195.56 78.33 C194.57 96.96, 188.61 105.98, 169.44 104.44 M195.56 78.33 C193.71 96.97, 185.06 103.05, 169.44 104.44 M169.44 104.44 C139.22 105.28, 107.41 106.33, 26.11 104.44 M169.44 104.44 C111.69 102.78, 56.2 102.87, 26.11 104.44 M26.11 104.44 C8.49 106.06, -1.47 97.37, 0 78.33 M26.11 104.44 C9.87 105.04, 2.02 96.03, 0 78.33 M0 78.33 C-0.82 67, -0.74 54.89, 0 26.11 M0 78.33 C1.28 68.18, 1.02 58.1, 0 26.11 M0 26.11 C-0.99 7.49, 9.75 -0.28, 26.11 0 M0 26.11 C-0.4 8.91, 6.84 1.31, 26.11 0" stroke="#1e1e1e" stroke-width="1" fill="none"></path></g><g transform="translate(995.3800811767578 80.38888888888891) rotate(0 77.86991882324219 12.5)"><text x="77.86991882324219" y="0" font-family="Virgil, Segoe UI Emoji" font-size="20px" fill="#1e1e1e" text-anchor="middle" style="white-space: pre;" direction="ltr" dominant-baseline="text-before-edge">SecretsManager</text></g><g stroke-linecap="round"><g transform="translate(575.4722222222223 196.22222222222223) rotate(0 19.290901998895094 1.1169619030422666)"><path d="M0.32 -0.8 C6.56 -0.36, 31.08 2.36, 37.17 3.03 M-0.98 1.4 C5.69 1.47, 32.86 1.33, 39.56 1.33" stroke="#1e1e1e" stroke-width="1" fill="none"></path></g><g transform="translate(575.4722222222223 196.22222222222223) rotate(0 19.290901998895094 1.1169619030422666)"><path d="M20.54 6.89 C27.95 4.52, 33.14 5.52, 41.03 2.65 M22.58 8.56 C27.16 5.55, 32.27 4.73, 39.89 1.66" stroke="#1e1e1e" stroke-width="1" fill="none"></path></g><g transform="translate(575.4722222222223 196.22222222222223) rotate(0 19.290901998895094 1.1169619030422666)"><path d="M20.51 -6.05 C27.97 -4.85, 33.17 -0.28, 41.03 2.65 M22.55 -4.38 C27.07 -3.5, 32.19 -0.43, 39.89 1.66" stroke="#1e1e1e" stroke-width="1" fill="none"></path></g></g><mask></mask><g stroke-linecap="round"><g transform="translate(572.1388888888889 465.1111111111111) rotate(0 23.357723092222102 -0.551224771672878)"><path d="M-0.09 -0.35 C7.93 -0.66, 40.27 -0.63, 48.32 -0.7 M-1.6 -1.57 C6.2 -1.24, 38.95 0.18, 47.07 0.47" stroke="#1e1e1e" stroke-width="1" fill="none"></path></g><g transform="translate(572.1388888888889 465.1111111111111) rotate(0 23.357723092222102 -0.551224771672878)"><path d="M23.21 6.95 C29.87 4.47, 37.12 4.56, 47.81 1.78 M23.21 7.52 C31.99 5.56, 40.43 2.94, 46.39 0.11" stroke="#1e1e1e" stroke-width="1" fill="none"></path></g><g transform="translate(572.1388888888889 465.1111111111111) rotate(0 23.357723092222102 -0.551224771672878)"><path d="M23.88 -9.76 C30.5 -6.99, 37.54 -1.64, 47.81 1.78 M23.89 -9.19 C32.32 -5.07, 40.52 -1.61, 46.39 0.11" stroke="#1e1e1e" stroke-width="1" fill="none"></path></g></g><mask></mask><g stroke-linecap="round"><g transform="translate(782.1388888888889 259.55555555555554) rotate(0 26.321181475553715 28.948207330264523)"><path d="M-0.68 1.05 C8 10.81, 42.44 48.26, 51.17 57.34 M1.16 0.56 C10.28 10.07, 45.07 46.29, 53.33 55.57" stroke="#1e1e1e" stroke-width="1" fill="none"></path></g><g transform="translate(782.1388888888889 259.55555555555554) rotate(0 26.321181475553715 28.948207330264523)"><path d="M28.37 40.15 C33.56 44.25, 36.48 47.24, 52.93 54.16 M27.36 42.03 C37.39 47.84, 47.19 53, 52.54 55.98" stroke="#1e1e1e" stroke-width="1" fill="none"></path></g><g transform="translate(782.1388888888889 259.55555555555554) rotate(0 26.321181475553715 28.948207330264523)"><path d="M43.39 26.18 C45.09 33.31, 44.66 39.42, 52.93 54.16 M42.39 28.06 C46.75 39.31, 50.79 49.83, 52.54 55.98" stroke="#1e1e1e" stroke-width="1" fill="none"></path></g></g><mask></mask><g stroke-linecap="round"><g transform="translate(785.4722222222223 440.66666666666663) rotate(0 22.286625395880833 -49.46107099321148)"><path d="M-0.56 0.4 C6.88 -15.98, 37.3 -82.94, 45.13 -99.32 M1.35 -0.44 C8.56 -16.56, 36.5 -81.46, 43.96 -98.01" stroke="#1e1e1e" stroke-width="1" fill="none"></path></g><g transform="translate(785.4722222222223 440.66666666666663) rotate(0 22.286625395880833 -49.46107099321148)"><path d="M42.67 -68.77 C42.22 -76.76, 45.24 -89.89, 42.23 -97.7 M41.73 -68.06 C42.99 -75.56, 41.91 -81.11, 44.56 -97.36" stroke="#1e1e1e" stroke-width="1" fill="none"></path></g><g transform="translate(785.4722222222223 440.66666666666663) rotate(0 22.286625395880833 -49.46107099321148)"><path d="M23.89 -77.03 C29.72 -82.14, 39.1 -92.46, 42.23 -97.7 M22.95 -76.31 C28.69 -81.83, 32 -85.45, 44.56 -97.36" stroke="#1e1e1e" stroke-width="1" fill="none"></path></g></g><mask></mask><g stroke-linecap="round"><g transform="translate(793.25 162.8888888888889) rotate(0 83.3109755833944 -32.30112423064861)"><path d="M-0.29 0.73 C27.58 -10.06, 139.21 -52.59, 166.91 -63.63 M1.76 0.06 C29.51 -10.54, 138.31 -54.52, 166.09 -65.33" stroke="#1e1e1e" stroke-width="1" fill="none"></path></g><g transform="translate(793.25 162.8888888888889) rotate(0 83.3109755833944 -32.30112423064861)"><path d="M144.89 -44.98 C151.09 -52.13, 154.12 -58.36, 166.67 -64.44 M142.79 -46.22 C149.16 -49.42, 153.43 -53.97, 165.27 -64.55" stroke="#1e1e1e" stroke-width="1" fill="none"></path></g><g transform="translate(793.25 162.8888888888889) rotate(0 83.3109755833944 -32.30112423064861)"><path d="M137.31 -64.05 C145.78 -65.88, 150.92 -66.81, 166.67 -64.44 M135.21 -65.29 C143.4 -64.07, 149.41 -64.22, 165.27 -64.55" stroke="#1e1e1e" stroke-width="1" fill="none"></path></g></g><mask></mask><g stroke-linecap="round"><g transform="translate(715.4722222222223 364) rotate(0 119.6224693086412 -117.18345337646753)"><path d="M-0.54 -1.17 C39.45 -40.52, 199.79 -196.43, 239.78 -235.2 M1.38 0.83 C41.31 -38.46, 199.72 -194.62, 239.3 -234.06" stroke="#1e1e1e" stroke-width="1" fill="none"></path></g><g transform="translate(715.4722222222223 364) rotate(0 119.6224693086412 -117.18345337646753)"><path d="M224.54 -205.44 C228.69 -213.79, 234.71 -222.25, 240.96 -234.72 M225.66 -207.5 C229.92 -214.14, 235 -223.95, 238.73 -234.55" stroke="#1e1e1e" stroke-width="1" fill="none"></path></g><g transform="translate(715.4722222222223 364) rotate(0 119.6224693086412 -117.18345337646753)"><path d="M210.11 -220.02 C218.49 -224.13, 228.64 -228.43, 240.96 -234.72 M211.22 -222.08 C219.74 -224.27, 229.11 -229.74, 238.73 -234.55" stroke="#1e1e1e" stroke-width="1" fill="none"></path></g></g><mask></mask><g stroke-linecap="round"><g transform="translate(497.0000000000001 548.3055555555555) rotate(0 272.53713758758414 -20.12306304258908)"><path d="M0.65 -0.31 C46.83 1.67, 186.92 21.26, 277.73 12.31 C368.55 3.35, 501.06 -42.64, 545.55 -54.04 M-0.47 -1.52 C45.52 0.54, 186.06 22.42, 276.91 13.38 C367.76 4.33, 500.07 -44.33, 544.63 -55.8" stroke="#1e1e1e" stroke-width="1" fill="none"></path></g><g transform="translate(497.0000000000001 548.3055555555555) rotate(0 272.53713758758414 -20.12306304258908)"><path d="M520.12 -37.42 C527.56 -44.77, 539.35 -52.64, 543.03 -57.41 M521.61 -37.66 C526.41 -41.81, 530.06 -45.4, 544.26 -55.65" stroke="#1e1e1e" stroke-width="1" fill="none"></path></g><g transform="translate(497.0000000000001 548.3055555555555) rotate(0 272.53713758758414 -20.12306304258908)"><path d="M514.16 -57.05 C523.78 -57.5, 537.68 -58.43, 543.03 -57.41 M515.65 -57.3 C521.53 -57.35, 526.42 -56.83, 544.26 -55.65" stroke="#1e1e1e" stroke-width="1" fill="none"></path></g></g><mask></mask><g stroke-linecap="round" transform="translate(10 289.5) rotate(0 74.5 72)"><path d="M32 0 M32 0 C55.29 -1.41, 80.46 -1.03, 117 0 M32 0 C54.07 0.52, 77.11 0.52, 117 0 M117 0 C139.83 -1.01, 147.14 10.86, 149 32 M117 0 C140.44 2.27, 150.27 10.99, 149 32 M149 32 C148.4 52.6, 150.11 77.41, 149 112 M149 32 C148.67 61.58, 148.26 88.97, 149 112 M149 112 C150.78 133.47, 138.48 142.83, 117 144 M149 112 C149.46 134.19, 138.43 144.97, 117 144 M117 144 C93.2 143.46, 67.39 144.14, 32 144 M117 144 C86.02 143.85, 53.42 143.12, 32 144 M32 144 C9.08 142.66, 0.79 134.39, 0 112 M32 144 C9.4 142.07, -0.84 133.82, 0 112 M0 112 C0.71 90.53, -0.83 67.52, 0 32 M0 112 C-0.27 88.79, -0.72 65.62, 0 32 M0 32 C1.52 12.63, 9.85 1.27, 32 0 M0 32 C1.63 10.79, 10.39 -0.64, 32 0" stroke="#1e1e1e" stroke-width="1" fill="none"></path></g><g transform="translate(62.16002655029297 349) rotate(0 22.33997344970703 12.5)"><text x="22.33997344970703" y="0" font-family="Virgil, Segoe UI Emoji" font-size="20px" fill="#1e1e1e" text-anchor="middle" style="white-space: pre;" direction="ltr" dominant-baseline="text-before-edge">User</text></g><g stroke-linecap="round"><g transform="translate(172 319) rotate(0 114.44160859950819 -57.69488773345947)"><path d="M0.76 0.29 C38.4 -18.95, 189.13 -96.34, 226.82 -115.68 M-0.29 -0.6 C37.64 -19.68, 191.49 -95.47, 229.18 -114.51" stroke="#1e1e1e" stroke-width="1" fill="none"></path></g><g transform="translate(172 319) rotate(0 114.44160859950819 -57.69488773345947)"><path d="M209.01 -93.88 C215.39 -102.24, 223.26 -108.35, 230.34 -114.26 M209.09 -92.73 C214.19 -100.07, 221.81 -106.41, 228.7 -114.34" stroke="#1e1e1e" stroke-width="1" fill="none"></path></g><g transform="translate(172 319) rotate(0 114.44160859950819 -57.69488773345947)"><path d="M199.86 -112.25 C209.74 -113.58, 221.15 -112.6, 230.34 -114.26 M199.94 -111.09 C207.92 -112.82, 218.31 -113.62, 228.7 -114.34" stroke="#1e1e1e" stroke-width="1" fill="none"></path></g></g><mask></mask><g stroke-linecap="round"><g transform="translate(170.75 354) rotate(0 109.27786808013916 57.69509639739988)"><path d="M-1.14 -1.07 C35.29 18.33, 182.88 96.76, 219.7 116.46 M0.46 0.98 C36.61 20, 182.2 95.41, 218.59 114.45" stroke="#1e1e1e" stroke-width="1" fill="none"></path></g><g transform="translate(170.75 354) rotate(0 109.27786808013916 57.69509639739988)"><path d="M187.07 110.04 C200.84 111.93, 213.56 112.74, 220 115.32 M187.96 111.28 C199.47 112.51, 210.41 114.45, 219.36 113.75" stroke="#1e1e1e" stroke-width="1" fill="none"></path></g><g transform="translate(170.75 354) rotate(0 109.27786808013916 57.69509639739988)"><path d="M196.54 91.84 C206.61 100.76, 215.62 108.69, 220 115.32 M197.43 93.08 C205.52 100.87, 213.01 109.43, 219.36 113.75" stroke="#1e1e1e" stroke-width="1" fill="none"></path></g></g><mask></mask></svg>